<?xml version="1.0" encoding="UTF-8"?>
<svg width="27px" height="27px" viewBox="0 0 27 27" version="1.1" xmlns="http://www.w3.org/2000/svg" xmlns:xlink="http://www.w3.org/1999/xlink">
    <!-- Generator: Sketch 49 (51002) - http://www.bohemiancoding.com/sketch -->
    <title>Combined Shape</title>
    <desc>Created with Sketch.</desc>
    <defs></defs>
    <g id="Welcome" stroke="none" stroke-width="1" fill="none" fill-rule="evenodd">
        <path d="M19.863961,13.5 L25.1672619,18.8033009 C26.9246212,20.5606602 26.9246212,23.4099026 25.1672619,25.1672619 C23.4099026,26.9246212 20.5606602,26.9246212 18.8033009,25.1672619 L13.5,19.863961 L8.19669914,25.1672619 C6.43933983,26.9246212 3.59009742,26.9246212 1.83273811,25.1672619 C0.0753787975,23.4099026 0.0753787975,20.5606602 1.83273811,18.8033009 L7.13603897,13.5 L1.83273811,8.19669914 C0.0753787975,6.43933983 0.0753787975,3.59009742 1.83273811,1.83273811 C3.59009742,0.0753787975 6.43933983,0.0753787975 8.19669914,1.83273811 L13.5,7.13603897 L18.8033009,1.83273811 C20.5606602,0.0753787975 23.4099026,0.0753787975 25.1672619,1.83273811 C26.9246212,3.59009742 26.9246212,6.43933983 25.1672619,8.19669914 L19.863961,13.5 Z" id="Combined-Shape" fill="#7F7F7F"></path>
    </g>
</svg>